<svg width="16" height="16" viewBox="0 0 16 16" fill="none" xmlns="http://www.w3.org/2000/svg">
<path d="M0 8C0 4.13664 3.58624 1 8 1C12.4138 1 16 4.13664 16 8C16 11.8634 12.4138 15 8 15C3.58624 15 0 11.863 0 8Z" fill="#003874"/>
<path d="M7 3.63328L9 3V13.3536L7 14V3.63221" fill="#ED1C24"/>
<path d="M15 8.77488C14.8098 10.3805 13.9392 11.9858 12.022 12C10.9068 12 10.0366 11.218 9.43827 10.2549V9.13791C10.1861 9.52889 10.893 9.93366 11.7508 9.94783C12.8116 9.96161 13.765 9.54306 14.1578 8.77526L15 8.77488ZM8.60873 9.7801C7.73853 10.8692 6.88176 11.972 5.30436 11.972C3.06043 11.972 2 9.75099 2 7.89527C2 6.10808 2.82954 4 5.01902 4C5.48004 4.02819 5.9308 4.1515 6.34436 4.36257C6.75791 4.57364 7.12577 4.86814 7.42596 5.22847V6.75027C6.76958 6.37812 6.03968 6.16329 5.29094 6.12187C3.90377 6.09392 2.6934 6.70815 2.7072 8.11852C2.72063 9.082 3.65908 9.73797 4.58374 9.73797C5.99814 9.73797 6.86833 8.41147 7.57553 7.39246C7.77956 7.12709 8.33719 6.34551 8.43342 6.23369C9.23573 5.0887 10.1604 4.04174 11.7378 4.04174C13.6009 4.04174 14.6471 5.5915 14.9455 7.18185H14.1026C13.9142 6.91996 13.6682 6.70756 13.3846 6.562C13.1009 6.41644 12.7878 6.34186 12.4707 6.34436C11.0019 6.34436 10.1317 7.72639 9.39724 8.74577C9.39724 8.73199 8.82618 9.52774 8.60836 9.77972" fill="white"/>
</svg>
