<svg width="159" height="38" viewBox="0 0 159 38" fill="none" xmlns="http://www.w3.org/2000/svg">
<g clip-path="url(#clip0_1_6587)">
<mask id="mask0_1_6587" style="mask-type:luminance" maskUnits="userSpaceOnUse" x="0" y="0" width="159" height="38">
<path d="M158.802 0H0V38H158.802V0Z" fill="white"/>
</mask>
<g mask="url(#mask0_1_6587)">
<path fill-rule="evenodd" clip-rule="evenodd" d="M57.1556 30.8483C57.1556 29.4911 57.8593 28.4054 59.1654 28.4054C60.4715 28.4054 61.1766 29.4911 61.1766 30.8483C61.1766 32.2054 60.4729 33.2911 59.1654 33.2911C57.8579 33.2911 57.1556 32.2054 57.1556 30.8483ZM56.3337 30.8483C56.3964 31.3753 56.515 32.3868 56.8648 32.7962C57.2146 33.2056 57.6116 33.5447 58.136 33.705C58.6604 33.8652 59.4465 33.8454 59.977 33.705C60.5076 33.5645 60.9808 33.1922 61.3468 32.7962C61.7683 32.3403 61.9005 31.4788 61.9845 30.9545C62.0685 30.4303 61.9934 29.8938 61.7683 29.4097C61.5432 28.9257 61.1777 28.5147 60.7158 28.2265C60.254 27.9383 59.7155 27.785 59.1654 27.7852C58.7628 27.7828 58.3643 27.863 57.9964 28.0207C57.6284 28.1784 57.2996 28.4098 57.0317 28.6996C56.7637 28.9894 56.5629 29.331 56.4426 29.7014C56.3222 30.0719 56.2851 30.4629 56.3337 30.8483Z" fill="#002C62"/>
<path d="M66.0335 27.9242H64.6543V26.2617L63.9041 26.5128V27.9242H62.7148V28.5444H63.9041V31.9644C63.9041 33.0325 63.9534 33.916 65.2848 33.916C65.5978 33.9129 65.9081 33.8587 66.2024 33.7559L66.1545 33.1574C65.9368 33.2479 65.702 33.2941 65.4649 33.2931C64.8583 33.2931 64.6557 32.8574 64.6557 32.3281V28.5417H66.0349L66.0335 27.9242Z" fill="#002C62"/>
<path fill-rule="evenodd" clip-rule="evenodd" d="M70.7895 31.184C70.7895 31.8151 70.7529 33.2957 68.9923 33.2957C68.3012 33.2957 67.7256 33.008 67.7256 32.2399C67.7256 30.956 69.2737 30.8298 70.57 30.8298H70.7839L70.7895 31.184ZM70.8627 33.7802H71.5988C71.5479 33.3723 71.5281 32.9613 71.5397 32.5506V29.9721C71.5397 28.4466 70.9091 27.7911 69.4088 27.7911C68.7924 27.815 68.1865 27.9532 67.6243 28.1983V28.8945C68.1571 28.5683 68.7778 28.4007 69.4088 28.4127C70.4208 28.4127 70.7895 28.9162 70.7895 29.9164V30.2136H70.6488C69.0767 30.2136 66.9121 30.3059 66.9121 32.267C66.9121 32.7963 67.1851 33.9213 68.9106 33.9213C69.3038 33.9298 69.6918 33.8336 70.032 33.6432C70.3721 33.4529 70.6513 33.1758 70.8388 32.8424H70.8627V33.7802Z" fill="#002C62"/>
<path d="M73.3298 33.7751H74.0799V30.7664L77.0777 33.7751H78.1136L74.7935 30.518L77.749 27.9231H76.785L74.0729 30.3212V25.1641H73.3228L73.3298 33.7751Z" fill="#002C62"/>
<path d="M82.6714 33.7806H83.4919V26.5619H83.5158L86.6332 33.7806H87.3369L90.36 26.5619H90.3826V33.7806H91.2045V25.7734H90.0279L86.9823 32.8184L83.9465 25.7734H82.6798L82.6714 33.7806Z" fill="#002C62"/>
<path fill-rule="evenodd" clip-rule="evenodd" d="M96.582 31.184C96.582 31.8151 96.5454 33.2957 94.7848 33.2957C94.0951 33.2957 93.5181 33.008 93.5181 32.2399C93.5181 30.956 95.0662 30.8298 96.3624 30.8298H96.5764L96.582 31.184ZM96.6538 33.7802H97.3913C97.3403 33.3723 97.3206 32.9613 97.3322 32.5506V29.9721C97.3322 28.4466 96.7002 27.7911 95.2013 27.7911C94.5848 27.8149 93.9789 27.9531 93.4168 28.1983V28.8945C93.9497 28.5685 94.5703 28.401 95.2013 28.4127C96.2147 28.4127 96.582 28.9162 96.582 29.9164V30.2136H96.4413C94.8692 30.2136 92.7046 30.3059 92.7046 32.267C92.7046 32.7963 92.979 33.9213 94.7045 33.9213C95.0975 33.9298 95.4854 33.8336 95.8253 33.6433C96.1652 33.4529 96.4441 33.1758 96.6313 32.8424H96.6552L96.6538 33.7802Z" fill="#002C62"/>
<path d="M99.1206 33.7769H99.8694V30.6433C99.8694 29.6227 100.334 28.4067 101.667 28.4067C102.904 28.4067 103.106 29.278 103.106 30.2891V33.7769H103.857V30.2741C103.857 28.8274 103.416 27.7824 101.786 27.7824C101.392 27.7756 101.004 27.8779 100.669 28.0774C100.333 28.2768 100.064 28.5649 99.8933 28.9075H99.8694V25.1699H99.1206V33.7769Z" fill="#002C62"/>
<path fill-rule="evenodd" clip-rule="evenodd" d="M106.487 25.4004H105.737V26.3653H106.487V25.4004ZM105.737 33.778H106.487V27.9233H105.737V33.778Z" fill="#002C62"/>
<path d="M108.378 33.7806H109.128V30.5411C109.128 29.5667 109.551 28.4063 110.924 28.4063C111.96 28.4063 112.364 29.1175 112.364 30.2195V33.7806H113.114V30.0363C113.114 28.7497 112.543 27.7861 111.044 27.7861C110.628 27.7513 110.211 27.848 109.857 28.0614C109.503 28.2749 109.23 28.5936 109.081 28.9695H109.057V27.9245H108.332C108.378 28.3968 108.378 28.8555 108.378 29.302V33.7806Z" fill="#002C62"/>
<path fill-rule="evenodd" clip-rule="evenodd" d="M115.46 30.8476C115.46 29.713 115.829 28.4048 117.257 28.4048C118.59 28.4048 119.055 29.7809 119.055 30.8476C119.055 31.9143 118.59 33.2905 117.257 33.2905C115.83 33.2905 115.46 31.9822 115.46 30.8476ZM119.803 25.168H119.053V28.915H119.031C118.861 28.5719 118.592 28.2833 118.256 28.0838C117.92 27.8843 117.532 27.7823 117.138 27.79C115.352 27.79 114.638 29.0752 114.638 30.853C114.638 32.5861 115.471 33.9188 117.138 33.9188C117.528 33.9447 117.917 33.8566 118.255 33.6661C118.593 33.4756 118.863 33.1915 119.031 32.8508H119.053V33.7804H119.803V25.168Z" fill="#002C62"/>
<path d="M121.611 33.7797H122.36V30.8835C122.36 29.8277 122.682 28.5424 123.872 28.5424C124.057 28.5408 124.242 28.5636 124.42 28.6103V27.8544C124.248 27.8114 124.072 27.7881 123.894 27.7852C123.533 27.8198 123.191 27.959 122.913 28.1845C122.635 28.41 122.435 28.7112 122.338 29.0487H122.312V27.9222H121.562C121.607 28.3569 121.623 28.7939 121.61 29.2305L121.611 33.7797Z" fill="#002C62"/>
<path fill-rule="evenodd" clip-rule="evenodd" d="M128.991 31.184C128.991 31.8151 128.956 33.2957 127.194 33.2957C126.503 33.2957 125.927 33.008 125.927 32.2399C125.927 30.956 127.476 30.8298 128.772 30.8298H128.986L128.991 31.184ZM129.059 33.7802H129.795C129.744 33.3723 129.725 32.9613 129.736 32.5506V29.9721C129.736 28.4466 129.104 27.7911 127.605 27.7911C126.988 27.8146 126.383 27.9529 125.82 28.1983V28.8945C126.353 28.5687 126.974 28.4011 127.605 28.4127C128.617 28.4127 128.984 28.9162 128.984 29.9164V30.2136H128.844C127.271 30.2136 125.105 30.3059 125.105 32.267C125.105 32.7963 125.387 33.9213 127.105 33.9213C127.498 33.9298 127.886 33.8336 128.226 33.6433C128.566 33.4529 128.845 33.1758 129.032 32.8424H129.057L129.059 33.7802Z" fill="#002C62"/>
<path fill-rule="evenodd" clip-rule="evenodd" d="M135.689 26.4613H136.815C137.519 26.4613 138.624 26.6215 138.624 27.7805C138.624 29.0548 137.47 29.2733 136.601 29.2733H135.685L135.689 26.4613ZM135.664 29.9614H136.39C137.605 29.9614 138.877 30.1107 138.877 31.5343C138.877 32.8073 137.627 33.0951 136.521 33.0951H135.664V29.9614ZM134.845 33.7831H136.498C138.224 33.7831 139.699 33.2403 139.699 31.4991C139.707 31.0268 139.53 30.569 139.204 30.2168C138.878 29.8647 138.426 29.6441 137.938 29.5991V29.576C138.389 29.5262 138.801 29.3062 139.085 28.9642C139.368 28.6221 139.499 28.1858 139.45 27.7506C139.45 26.213 138.176 25.7773 136.821 25.7773H134.85L134.845 33.7831Z" fill="#002C62"/>
<path fill-rule="evenodd" clip-rule="evenodd" d="M144.864 31.184C144.864 31.8151 144.829 33.2957 143.067 33.2957C142.376 33.2957 141.8 33.008 141.8 32.2399C141.8 30.956 143.349 30.8298 144.645 30.8298H144.859L144.864 31.184ZM144.935 33.7802H145.674C145.622 33.3723 145.603 32.9613 145.615 32.5506V29.9721C145.615 28.4466 144.985 27.7911 143.485 27.7911C142.868 27.815 142.262 27.9532 141.699 28.1983V28.8945C142.233 28.5684 142.854 28.4009 143.485 28.4127C144.496 28.4127 144.864 28.9162 144.864 29.9164V30.2136H144.724C143.153 30.2136 140.986 30.3059 140.986 32.267C140.986 32.7963 141.26 33.9213 142.986 33.9213C143.379 33.9299 143.767 33.8338 144.107 33.6434C144.447 33.4531 144.726 33.1759 144.914 32.8424H144.936L144.935 33.7802Z" fill="#002C62"/>
<path d="M147.402 33.7811H148.153V30.5416C148.153 29.5672 148.575 28.4068 149.95 28.4068C150.986 28.4068 151.39 29.118 151.39 30.22V33.7811H152.14V30.0367C152.14 28.7502 151.568 27.7866 150.069 27.7866C149.652 27.7505 149.234 27.8465 148.879 28.0601C148.523 28.2736 148.249 28.5931 148.099 28.97H148.077V27.925H147.349C147.397 28.3973 147.397 28.856 147.397 29.3025L147.402 33.7811Z" fill="#002C62"/>
<path d="M154.018 33.7751H154.766V30.7664L157.765 33.7751H158.8L155.481 30.518L158.444 27.9231H157.48L154.766 30.3212V25.1641H154.018V33.7751Z" fill="#002C62"/>
<path fill-rule="evenodd" clip-rule="evenodd" d="M70.4667 19.1181C68.3021 19.1181 67.4154 17.3837 67.4154 15.4538C67.4154 13.4914 68.3021 11.757 70.4667 11.757C72.6313 11.757 73.5179 13.4914 73.5179 15.4538C73.5179 17.3891 72.6313 19.1181 70.4667 19.1181ZM70.4667 22.2871C74.9521 22.2871 78.3679 19.7736 78.3679 15.4484C78.3679 11.0988 74.9521 8.58398 70.4667 8.58398C65.9813 8.58398 62.5669 11.0974 62.5669 15.4484C62.5669 19.7736 65.9827 22.2871 70.4667 22.2871Z" fill="#E50019"/>
<path d="M77.9375 12.0512H80.6228V17.3821C80.6228 20.5035 81.6404 22.2854 85.8387 22.2854C86.8252 22.2637 87.8092 22.1798 88.7844 22.0344L88.6282 19.0934C88.1561 19.1879 87.677 19.246 87.1954 19.2672C85.7078 19.2672 85.3179 18.4637 85.3179 16.8786V12.0512H88.5986V8.88366H85.3151V4.35352L80.7031 5.94137V8.8823H77.9389L77.9375 12.0512Z" fill="#E50019"/>
<path d="M105.03 21.9773H109.723V15.4902H109.775L113.53 21.9773H119.214L114.104 14.8876L118.823 8.87817H113.686L109.775 14.3841H109.723V4.37109L105.03 5.93724V21.9773Z" fill="#E50019"/>
<path d="M50.0674 21.9773H54.7625V15.4902H54.8146L58.5695 21.9773H64.2526L59.1423 14.893L63.8628 8.88359H58.7258L54.8146 14.3895H54.7625V4.37109L50.0674 5.86395V21.9773Z" fill="#E50019"/>
<path fill-rule="evenodd" clip-rule="evenodd" d="M93.7794 17.846C93.7794 16.573 95.0461 16.0913 96.6548 16.0913C97.3683 16.0913 98.0537 16.1415 98.6603 16.1673C98.7009 16.9567 98.4153 17.7294 97.866 18.3161C97.3167 18.9027 96.5486 19.2554 95.7301 19.2968C94.6224 19.2968 93.778 18.7621 93.778 17.846M103.357 22.0437C103.164 21.0116 103.076 19.964 103.094 18.9155V13.9782C103.094 9.93119 100.058 8.48176 96.5478 8.48176C94.6715 8.44233 92.8058 8.76247 91.0589 9.42362L91.1377 12.5288C92.486 11.8419 93.9945 11.4999 95.519 11.5353C97.2346 11.5353 98.6322 12.0198 98.6589 13.8262C97.9262 13.7093 97.1849 13.6494 96.4422 13.647C93.9089 13.647 89.3433 14.1302 89.3433 18.1772C89.3433 21.0516 91.771 22.349 94.4888 22.349C95.3743 22.3856 96.2526 22.1806 97.0229 21.7577C97.7931 21.3347 98.424 20.7108 98.8433 19.9578H98.8967C98.8967 20.6445 98.977 21.3325 99.0037 22.0423L103.357 22.0437Z" fill="#E50019"/>
<path d="M0 19C0 8.50657 10.2572 0 22.9098 0C35.5624 0 45.8196 8.50657 45.8196 19C45.8196 29.4934 35.561 38 22.9098 38C10.2586 38 0 29.4934 0 19Z" fill="#002C62"/>
<path d="M20.126 6.12683L25.4488 4.43176L25.4755 32.184L20.1077 33.9198L20.126 6.12683Z" fill="#E50019"/>
<path d="M23.2877 23.4032C20.9753 26.0917 18.7403 28.8318 14.5519 28.8318C8.64079 28.8318 5.83301 23.3177 5.83301 18.7062C5.83301 14.2778 8.02575 9.03516 13.7877 9.03516C15.0014 9.1047 16.1882 9.40966 17.2769 9.93177C18.3656 10.4539 19.3339 11.1824 20.1238 12.0738V15.8344C18.3978 14.8998 16.4711 14.3624 14.4942 14.2642C10.8349 14.2059 7.61901 15.7327 7.6753 19.2097C7.71471 21.6064 10.1735 23.2322 12.6209 23.2322C16.3717 23.2322 18.6404 19.9317 20.539 17.4237C21.0696 16.7682 22.5629 14.8451 22.7909 14.5343C24.902 11.6924 27.3382 9.10573 31.5252 9.10573C36.4512 9.10573 39.2266 12.9397 40.0119 16.8862H37.7854C37.2865 16.2379 36.6353 15.7129 35.8851 15.3543C35.135 14.9957 34.3074 14.8137 33.4703 14.8234C29.5943 14.8234 27.2777 18.2624 25.3397 20.7948C25.3397 20.7948 23.8323 22.7762 23.2863 23.41M40.1372 20.9197C39.6389 24.8866 37.3294 28.8969 32.288 28.9051C29.3452 28.9051 27.0455 26.9671 25.4537 24.588V21.8289C27.3042 22.9423 29.3957 23.63 31.566 23.8389C32.7991 23.9549 34.0416 23.7436 35.1591 23.2278C36.2766 22.7121 37.2266 21.9116 37.9064 20.9129L40.1372 20.9197Z" fill="white"/>
<path d="M49.96 33.5835H50.8044V29.485L54.914 33.5781H56.0695L51.608 29.2515L55.7177 25.3945H54.6227L50.8058 29.0588V25.3945H49.9614L49.96 33.5835Z" fill="#002C62"/>
</g>
</g>
<defs>
<clipPath id="clip0_1_6587">
<rect width="159" height="38" fill="white"/>
</clipPath>
</defs>
</svg>
