<svg width="120" height="26" viewBox="0 0 120 26" fill="none" xmlns="http://www.w3.org/2000/svg">
<path d="M11.5942 9.22681C11.5942 13.2872 8.21014 14.2484 3.39057 14.1045C3.53347 16.0072 4.4623 17.6549 6.91756 17.6549C8.19281 17.6454 9.43391 17.2389 10.4705 16.491L11.4578 18.8449C10.0045 19.8168 8.29188 20.3208 6.5473 20.2899C1.77973 20.2899 0 17.1383 0 13.1368C0 8.73643 2.45524 5.21875 6.96301 5.21875C9.81449 5.21875 11.5877 6.52646 11.5877 9.22025M6.82011 7.71643C4.53375 7.71643 3.60491 9.84796 3.37758 11.6918C3.79978 11.6918 4.13753 11.6918 4.50777 11.6918C6.98898 11.6918 8.56736 11.038 8.56736 9.36414C8.56736 8.14142 7.85936 7.69028 6.82011 7.69028" fill="#FF4612"/>
<path d="M25.2569 17.114C25.2569 17.6606 25.3879 17.849 25.8805 17.8804L26.6663 17.9307V19.8971H22.6314L22.5503 18.4521H22.4693C22.0481 19.0489 21.4845 19.5291 20.8306 19.8487C20.1767 20.1681 19.4534 20.3166 18.7274 20.2804C14.7487 20.249 13.333 17.4218 13.333 13.6209C13.333 8.82114 15.7153 5.79297 20.4798 5.79297C22.1129 5.84439 23.7266 6.16485 25.2569 6.74161V17.114ZM22.0639 8.62636C21.4156 8.37569 20.7251 8.25407 20.0309 8.26827C17.3492 8.26827 16.5634 10.7813 16.5634 13.533C16.5634 15.6879 17.106 17.8176 19.3511 17.8176C19.6961 17.8473 20.0434 17.8043 20.371 17.6913C20.6985 17.5784 20.9991 17.3979 21.2538 17.1616C21.5083 16.9252 21.7113 16.6381 21.8497 16.3184C21.9881 15.9986 22.0589 15.6534 22.0576 15.3046L22.0639 8.62636Z" fill="#FF4612"/>
<path d="M39.8891 5.79272V7.75122L32.3388 17.442H37.6804C38.2769 17.442 38.5783 16.6726 38.5783 16.6726L40.0006 15.6171L39.45 19.7058H28.4064V17.69L35.9501 8.08188H32.1356C31.4802 8.08188 31.3688 8.24722 31.3688 8.80043V10.0722L28.662 9.87504V5.79272H39.8891Z" fill="#FF4612"/>
<path d="M68.7025 16.9575C68.7025 17.6006 68.7617 17.7099 69.2967 17.7935L70.1448 17.8771V19.8899H65.9553L65.8706 18.4108H65.7593C65.324 19.0269 64.735 19.5226 64.0498 19.8502C63.364 20.1779 62.6046 20.3266 61.844 20.2821C57.537 20.2821 56.2318 17.0668 56.2318 13.3564C56.2318 8.77779 58.5814 5.48531 62.888 5.48531C63.7344 5.48273 64.5762 5.61298 65.3808 5.87113V2.97094C65.3808 2.38575 65.2115 2.24428 64.6695 2.16069L63.7889 2.07709V0H68.6898L68.7025 16.9575ZM65.3877 15.2277V8.4691C64.6886 8.14034 63.924 7.96904 63.1489 7.96753C60.5391 7.96753 59.6643 10.2568 59.6643 13.022C59.6643 15.5107 60.2324 17.7421 62.5814 17.7421C64.3628 17.7421 65.3877 16.681 65.3877 15.2277Z" fill="#FF4612"/>
<path d="M76.7784 17.531L78.2601 17.645V19.7101H71.9413V17.7274L72.8363 17.645C73.365 17.5627 73.481 17.4233 73.481 16.7392V8.8146C73.481 8.18115 73.3134 8.07344 72.7784 7.99112L71.8833 7.93408V5.84365H76.7784V17.531ZM74.9621 0.0411753C75.2219 0.0202036 75.4827 0.0522445 75.7291 0.135282C75.9755 0.218319 76.2016 0.350557 76.3929 0.523684C76.5848 0.696811 76.7384 0.907083 76.8433 1.14128C76.9482 1.37548 77.0033 1.62854 77.0039 1.88454C77.0045 2.14571 76.9505 2.4042 76.845 2.64388C76.7395 2.88357 76.5853 3.09931 76.3911 3.27763C76.1969 3.45595 75.9679 3.59303 75.7175 3.68032C75.4671 3.7676 75.2016 3.80321 74.9366 3.78492C74.6642 3.81974 74.3871 3.79701 74.1245 3.71822C73.8613 3.63945 73.6184 3.50644 73.412 3.3281C73.2056 3.14974 73.0404 2.93014 72.9268 2.68394C72.8137 2.43775 72.7552 2.17062 72.7552 1.90038C72.7552 1.63015 72.8137 1.36302 72.9268 1.11682C73.0404 0.870625 73.2056 0.651026 73.412 0.472673C73.6184 0.29432 73.8613 0.161318 74.1245 0.0825402C74.3871 0.00376322 74.6642 -0.0189782 74.9366 0.0158363" fill="#FF4612"/>
<path d="M81.5761 8.61417C81.5761 7.96901 81.4109 7.85927 80.8834 7.77544L80.0005 7.71735V5.58821H84.5941V7.52379C85.0196 6.78217 85.6387 6.17481 86.3837 5.76929C87.1286 5.36379 87.9692 5.17604 88.8132 5.22691C91.5958 5.22691 93.0892 6.73666 93.0892 10.0142V17.5243L94.4932 17.6082V19.7115H88.4063V17.7179L89.2324 17.634C89.7025 17.5501 89.8677 17.4081 89.8677 16.821V10.8014C89.8677 9.09161 89.4863 7.96901 87.6886 7.96901C87.3037 7.96524 86.9222 8.04072 86.5674 8.1908C86.2121 8.34095 85.8909 8.56257 85.6225 8.8424C85.3541 9.12217 85.1443 9.45434 85.0057 9.81874C84.8672 10.1831 84.8028 10.5723 84.8167 10.9627V17.5243L86.1379 17.6082V19.7115H80.0387V17.692L80.8961 17.6082C81.4237 17.6082 81.5315 17.3823 81.5315 16.7952L81.5761 8.61417Z" fill="#FF4612"/>
<path d="M107.239 9.22681C107.239 13.2872 104.025 14.2484 99.446 14.1045C99.5817 16.0072 100.464 17.6549 102.796 17.6549C104.008 17.6455 105.187 17.2389 106.172 16.491L107.11 18.8449C105.729 19.8165 104.102 20.3204 102.445 20.2899C97.9156 20.2899 96.231 17.1383 96.231 13.1368C96.231 8.73643 98.5637 5.21875 102.852 5.21875C105.554 5.21875 107.245 6.52646 107.245 9.22031M102.716 7.71643C100.55 7.71643 99.631 9.84796 99.446 11.6918C99.8472 11.6918 100.168 11.6918 100.52 11.6918C102.877 11.6918 104.376 11.038 104.376 9.36414C104.376 8.14141 103.703 7.69028 102.716 7.69028" fill="#FF4612"/>
<path d="M113.808 10.8839V17.4917L116.018 17.6078V19.7115H109.049V17.6917L109.877 17.6078C110.514 17.524 110.571 17.3239 110.571 16.6851V8.55429C110.571 7.9929 110.406 7.85742 109.934 7.76704L108.985 7.71545V5.58595H113.521V7.71545C113.844 6.94107 114.394 6.28635 115.098 5.84061C115.801 5.39482 116.623 5.1797 117.451 5.22458C118.331 5.19522 119.204 5.37883 120 5.76018V10.4386L117.235 10.6321V8.86408C117.235 8.38652 117.235 8.21875 116.987 8.13487C116.744 8.02919 116.48 7.98066 116.216 7.9929C114.693 7.9929 113.782 9.22542 113.782 10.8774" fill="#FF4612"/>
<path d="M49.4862 5.79899V7.89974L50.6919 8.01295L48.0785 15.9316H47.9965L45.6672 8.69226C45.5283 8.22681 45.6672 7.98153 46.1091 7.9249L46.7908 7.86832V5.79272H40.9266V7.81168L42.1323 7.97522L46.5509 19.9255L46.0649 21.0702C45.5157 22.4099 44.8024 22.6804 43.5967 22.8251C42.7432 22.8837 41.8918 22.6842 41.1538 22.2527C39.4116 21.3281 38.9635 18.4286 40.8824 17.7179C41.5137 17.4914 42.1954 18.4223 42.9971 17.3593C43.0938 17.2077 43.1579 17.0376 43.1854 16.8601C43.213 16.6825 43.2034 16.5011 43.1571 16.3274C43.1108 16.1537 43.029 15.9914 42.9167 15.8508C42.8045 15.7101 42.6642 15.5942 42.5047 15.5102C40.4595 14.0699 37.5242 15.8372 37.1897 18.133C36.8236 20.6488 37.5874 23.1647 39.7147 24.4226C40.9324 25.1754 42.3476 25.5499 43.7798 25.4982C46.4752 25.3346 48.1985 23.259 49.5051 19.6803L53.564 8.67336C53.785 8.10101 53.9238 7.96264 54.4414 7.8809L55.0727 7.83058V5.79899H49.4862Z" fill="#FF4612"/>
</svg>
