<svg width="118" height="36" viewBox="0 0 118 36" fill="none" xmlns="http://www.w3.org/2000/svg">
<path d="M74.3575 10.464L72.4106 7.06186L68.9495 8.77277L67.0026 5.37061L63.5414 7.08152L61.5945 3.67937L58.1334 5.39028L56.1865 1.98812L52.7253 3.69903L50.7784 0.296875L47.3172 2.00779L39.9426 26.6292L48.8708 29.4414C49.4608 27.4551 51.27 25.9999 53.3939 25.9999C56.0095 25.9999 58.1334 28.1828 58.1334 30.877V30.9753C58.153 31.4079 58.1137 31.8602 57.976 32.2929L67.0616 35.1641" fill="#D70B17"/>
<path d="M47.5894 24.5806C47.1174 24.5019 46.8027 24.089 46.8027 23.5973V11.5029C46.8027 10.9326 47.2354 10.5 47.786 10.5H56.2422C56.4586 10.5 56.6749 10.5197 56.8912 10.559C58.7004 10.8933 60.0377 12.5059 60.0377 14.4135V23.5973C60.0377 23.8726 59.9394 24.1283 59.7427 24.3249C59.5657 24.5019 59.3101 24.6199 59.0544 24.6199L58.8774 24.6003C58.4055 24.5216 58.0908 24.1086 58.0908 23.617V14.4528C58.0908 13.5285 57.4418 12.7419 56.5569 12.5846L56.2422 12.5452H54.3937V23.617C54.3937 23.8923 54.2953 24.148 54.0987 24.3446C53.9217 24.5216 53.666 24.6396 53.4104 24.6396L53.2334 24.6199C52.7614 24.5413 52.4468 24.1283 52.4468 23.6367V12.5452H48.7496V23.617C48.7496 23.8923 48.6513 24.148 48.4546 24.3249C48.2777 24.5019 48.022 24.6199 47.7664 24.6199L47.5894 24.5806Z" fill="white"/>
<path d="M61.6523 29.8619C61.1804 29.7832 60.8657 29.3702 60.8657 28.8786C60.8657 28.6033 60.964 28.3476 61.141 28.1706C61.318 27.9936 61.5737 27.8756 61.8293 27.8756C62.6553 27.8756 63.3633 27.325 63.5992 26.5187L64.6022 23.0576L61.318 11.7105C61.1607 11.1795 61.4557 10.6092 61.967 10.4322L62.3996 10.4125C62.7536 10.4715 63.0486 10.7469 63.1666 11.1008L65.6051 19.5571L68.083 11.1008C68.201 10.6289 68.6926 10.3142 69.204 10.4125L69.263 10.4322C69.7939 10.6092 70.0889 11.1795 69.9119 11.7105L66.5294 23.3525L65.4675 27.089C65.1922 27.9543 64.7202 28.6426 64.0909 29.1146C63.4223 29.6259 62.6356 29.9012 61.8097 29.9012L61.6523 29.8619Z" fill="white"/>
<path d="M0.825956 24.4656C0.334315 24.3673 0 23.9543 0 23.443V5.38994C0 5.09495 0.0983282 4.8393 0.294985 4.64264C0.471975 4.44598 0.747294 4.34766 1.02261 4.34766L1.1996 4.36732C1.69124 4.46565 2.04523 4.87863 2.04523 5.38994V10.5227H3.97246C4.20845 10.5227 4.42477 10.5423 4.66076 10.5817C6.54866 10.916 7.92525 12.6072 7.92525 14.5935V20.4145C7.92525 22.6564 6.15535 24.4853 3.97246 24.4853H1.04228L0.825956 24.4656ZM2.02556 22.3811H3.95279C5.01474 22.3811 5.88003 21.4961 5.88003 20.3948V14.5738C5.88003 13.6102 5.21139 12.7842 4.28711 12.6269L3.95279 12.5876H2.02556V22.3811Z" fill="#5B5B5B"/>
<path d="M13.7478 24.5538C11.8599 24.2195 10.5029 22.5282 10.5029 20.542V14.485C10.5029 13.3837 10.9159 12.3808 11.6632 11.5941C12.4105 10.8272 13.3938 10.3945 14.4557 10.3945C14.6917 10.3945 14.908 10.4142 15.144 10.4535C17.0319 10.7878 18.4085 12.4791 18.4085 14.4653V20.5223C18.4085 21.604 17.9955 22.6266 17.2482 23.4132C16.501 24.1802 15.5177 24.5931 14.4754 24.5931C14.2197 24.6128 13.9837 24.5931 13.7478 24.5538ZM14.7704 12.5184L14.4361 12.4791C13.3544 12.4791 12.5088 13.3444 12.5088 14.4653V20.5223C12.5088 21.486 13.1775 22.3119 14.0821 22.4692L14.4164 22.5086C15.4783 22.5086 16.3436 21.6236 16.3436 20.5223V14.4653C16.3633 13.5017 15.6947 12.6954 14.7704 12.5184Z" fill="#5B5B5B"/>
<path d="M24.2458 24.5498C22.3579 24.1958 21.001 22.5242 21.001 20.538V14.4809C21.001 12.2391 22.7709 10.4102 24.9538 10.4102C25.1898 10.4102 25.4061 10.4298 25.6421 10.4692C27.5103 10.8035 28.8869 12.4947 28.8869 14.4613V20.5183C28.8869 21.5999 28.4739 22.6225 27.7266 23.4091C26.9793 24.1761 25.9961 24.5891 24.9341 24.5891C24.6981 24.6087 24.4621 24.5891 24.2458 24.5498ZM25.2684 12.5144L24.9341 12.475C23.8525 12.475 23.0069 13.3403 23.0069 14.4613V20.5183C23.0069 21.4819 23.6755 22.3079 24.5801 22.4652L24.9144 22.5045C25.4257 22.5045 25.8977 22.3079 26.2714 21.9342C26.645 21.5606 26.8417 21.0689 26.8417 20.5183V14.4613C26.8613 13.4977 26.1927 12.6914 25.2684 12.5144Z" fill="#5B5B5B"/>
<path d="M32.3103 24.5836C31.8187 24.5049 31.4844 24.0723 31.4844 23.561V5.38994C31.4844 5.09495 31.5827 4.8393 31.7794 4.64264C31.976 4.44598 32.2317 4.34766 32.507 4.34766L32.684 4.36732C33.1756 4.46565 33.5296 4.87863 33.5296 5.38994V16.147L38.1904 10.7587C38.4263 10.503 38.7803 10.3653 39.1343 10.444L39.6456 10.68C40.0586 11.0733 40.0979 11.7223 39.7243 12.1549L36.1648 16.1864L39.8226 23.0694C39.9603 23.3053 39.9799 23.5807 39.9209 23.8363C39.8423 24.092 39.6653 24.328 39.4293 24.4656C39.2326 24.5836 38.9967 24.6229 38.7607 24.5836C38.446 24.5246 38.21 24.3476 38.0527 24.092L34.7685 17.8776L33.5099 19.2935V23.561C33.5099 23.8363 33.4116 24.1116 33.215 24.3083C33.0183 24.5049 32.7626 24.6033 32.507 24.6033L32.3103 24.5836Z" fill="#5B5B5B"/>
<path d="M77.012 24.5671C75.891 24.3704 74.9471 23.6821 74.3768 22.6595C74.2391 22.4235 74.2194 22.1286 74.2784 21.8532C74.3571 21.5779 74.5144 21.3616 74.7504 21.2239C74.9471 21.1059 75.183 21.0666 75.419 21.1059C75.714 21.1649 75.9697 21.3419 76.127 21.6172C76.4023 22.0892 76.8153 22.3842 77.3266 22.4825C77.8969 22.5809 78.4082 22.4235 78.8212 22.0302C79.2145 21.6566 79.4112 21.1256 79.3718 20.5946C79.3522 20.044 79.0768 19.5524 78.6442 19.2377L75.9107 17.2318C75.0061 16.5828 74.4554 15.5602 74.3571 14.4C74.2981 13.22 74.7307 12.1187 75.537 11.3714C76.3433 10.5848 77.4446 10.2308 78.5459 10.3882C79.6865 10.6045 80.6304 11.2731 81.1614 12.2367C81.2794 12.4727 81.3187 12.748 81.2597 13.0234C81.1811 13.2987 81.0237 13.5347 80.7878 13.6527C80.5911 13.7707 80.3551 13.81 80.1191 13.7707C79.8241 13.7117 79.5685 13.5347 79.4112 13.279C79.1752 12.866 78.7622 12.571 78.2509 12.4727C77.7396 12.3941 77.2479 12.5317 76.8743 12.8857C76.5203 13.22 76.3237 13.7117 76.363 14.2426C76.3827 14.7343 76.658 15.2259 77.0709 15.5012L79.8045 17.4678C80.7484 18.1561 81.3187 19.2377 81.3777 20.4176C81.4761 21.5976 81.0237 22.7382 80.1585 23.5248C79.3325 24.3114 78.1919 24.6851 77.0513 24.5278" fill="#5B5B5B"/>
<path d="M84.8588 24.5992C84.3672 24.5009 84.0132 24.0683 84.0132 23.5766V5.40556C84.0132 5.13024 84.1312 4.85492 84.3278 4.65827C84.5245 4.46161 84.7801 4.36328 85.0358 4.36328L85.2128 4.38295C85.7044 4.48127 86.0387 4.89425 86.0387 5.40556V10.5383H87.966C88.202 10.5383 88.438 10.558 88.6543 10.5973C90.5422 10.9316 91.8991 12.6229 91.8991 14.6091V23.5766C91.8991 24.1666 91.4468 24.6189 90.8962 24.6189L90.7192 24.5992C90.2275 24.5206 89.8735 24.0879 89.8735 23.5766V14.6091C89.8735 13.6455 89.2049 12.8195 88.3003 12.6622L87.9463 12.6229H86.0191V23.5766C86.0191 24.1666 85.5668 24.6189 84.9965 24.6189L84.8588 24.5992Z" fill="#5B5B5B"/>
<path d="M97.738 24.5498C95.8501 24.2154 94.4932 22.5242 94.4932 20.538V14.4809C94.4932 12.2391 96.2631 10.4102 98.446 10.4102C98.6819 10.4102 98.8983 10.4298 99.1343 10.4692C101.022 10.8035 102.399 12.4947 102.399 14.4809V20.538C102.399 21.6196 101.986 22.6422 101.238 23.4288C100.491 24.1958 99.5079 24.6088 98.4656 24.6088C98.21 24.6088 97.974 24.5891 97.738 24.5498ZM98.7803 12.534L98.446 12.4947C97.9347 12.4947 97.443 12.6914 97.089 13.065C96.735 13.4387 96.5384 13.9303 96.5384 14.4613V20.5183C96.5384 21.4819 97.207 22.3079 98.1116 22.4652L98.446 22.5045C98.9573 22.5045 99.4292 22.3079 99.8029 21.9342C100.177 21.5606 100.373 21.0689 100.373 20.5183V14.4613C100.354 13.5173 99.6849 12.6914 98.7803 12.534Z" fill="#5B5B5B"/>
<path d="M117.973 11.6766C118.032 11.4013 117.992 11.1456 117.874 10.9096C117.737 10.6736 117.501 10.4966 117.226 10.4376L117.049 10.418C116.596 10.418 116.183 10.7326 116.065 11.2046C116.065 11.2439 114.964 15.7867 114.118 19.2478L114.099 19.3265L114.079 19.2478C113.253 15.8064 112.132 11.2636 112.112 11.2046C112.034 10.7916 111.739 10.4966 111.326 10.4376L111.149 10.418C110.697 10.418 110.323 10.7326 110.185 11.2046C110.166 11.2439 109.084 15.7867 108.238 19.2478L108.219 19.3265L108.199 19.2478C107.373 15.7867 106.252 11.2636 106.252 11.2046C106.154 10.8113 105.839 10.4966 105.465 10.4376L105.072 10.4573C104.541 10.595 104.207 11.1456 104.345 11.6962L107.275 23.8103C107.393 24.2036 107.688 24.5182 108.061 24.5772L108.219 24.5969C108.691 24.5969 109.084 24.2822 109.182 23.8103C109.202 23.7709 110.303 19.2282 111.149 15.767L111.168 15.6884L111.188 15.767C112.053 19.2478 113.135 23.8103 113.135 23.8103C113.253 24.2036 113.548 24.4986 113.922 24.5772L114.079 24.5969C114.551 24.5969 114.944 24.2822 115.043 23.8103" fill="#5B5B5B"/>
</svg>
