<svg width="80" height="26" viewBox="0 0 80 26" fill="none" xmlns="http://www.w3.org/2000/svg">
<path fill-rule="evenodd" clip-rule="evenodd" d="M50.7317 5.81567C50.7302 5.60926 50.7697 5.40458 50.8492 5.21358C50.9287 5.02262 51.0453 4.84914 51.1936 4.7034C51.3414 4.55764 51.5175 4.44248 51.7107 4.36466C51.9043 4.28686 52.1117 4.24796 52.3204 4.25023H53.439V1.94688C53.4038 1.70492 53.4219 1.45837 53.4921 1.22394C53.5619 0.989507 53.6819 0.772653 53.8443 0.588053C54.0063 0.403449 54.2068 0.255411 54.4316 0.153954C54.6565 0.0524979 54.9014 0 55.1487 0C55.396 0 55.6404 0.0524979 55.8658 0.153954C56.0907 0.255411 56.2912 0.403449 56.4531 0.588053C56.6151 0.772653 56.7355 0.989507 56.8053 1.22394C56.8751 1.45837 56.8931 1.70492 56.8585 1.94688V4.25023H60.4941C60.7029 4.24796 60.9102 4.28686 61.1038 4.36466C61.297 4.44248 61.4731 4.55764 61.6209 4.7034C61.7687 4.84914 61.8858 5.02262 61.9653 5.21358C62.0443 5.40458 62.0843 5.60926 62.0829 5.81567C62.0804 6.23085 61.9121 6.62841 61.6146 6.92159C61.317 7.21481 60.9141 7.37996 60.4941 7.38106H56.8585V12.9262C56.8585 15.6305 58.3824 17.0125 60.4941 17.0125C60.9185 17.0125 61.3263 17.1793 61.6268 17.476C61.9268 17.7728 62.0955 18.1753 62.0955 18.595C62.0955 19.0147 61.9268 19.4172 61.6268 19.714C61.3263 20.0108 60.9185 20.1775 60.4941 20.1775C56.4829 20.1775 53.439 17.3836 53.439 12.9262V7.38106H52.3204C51.9004 7.37996 51.4975 7.21481 51.1999 6.92159C50.9024 6.62841 50.7341 6.23085 50.7317 5.81567ZM15.4237 12.2447C15.4362 10.6948 15.8918 9.18036 16.7376 7.87747C17.5834 6.57458 18.7847 5.53684 20.2016 4.88506C21.6185 4.23323 23.1927 3.99412 24.7411 4.19556C26.2896 4.39699 27.7486 5.03066 28.9484 6.0229C29.1339 6.18242 29.2844 6.37799 29.3906 6.59764C29.4968 6.81725 29.5565 7.05616 29.5658 7.2996C29.5681 7.75826 29.3896 8.19963 29.0684 8.52949L24.3172 14.1427C24.1792 14.3204 24.0009 14.4631 23.7967 14.5593C23.5925 14.6554 23.3682 14.7022 23.1423 14.6959C22.9338 14.707 22.7252 14.6755 22.5296 14.6032C22.3339 14.5309 22.1553 14.4195 22.0049 14.2758C21.8545 14.1321 21.7355 13.9592 21.6552 13.768C21.575 13.5767 21.5353 13.371 21.5386 13.1638C21.5284 12.9791 21.5558 12.7943 21.6191 12.6203C21.6825 12.4462 21.7805 12.2866 21.9073 12.151L25.6465 7.80173C25.0342 7.42936 24.3277 7.23749 23.6097 7.24851C20.9553 7.24851 18.8542 9.45721 18.8542 12.2447C18.8542 15.0321 20.9253 17.2408 23.6097 17.2408C24.2217 17.2469 24.8283 17.1271 25.3914 16.8891C25.9545 16.651 26.4618 16.2999 26.8815 15.8577C26.9467 15.8054 27.0092 15.7536 27.0702 15.7031C27.4703 15.3718 27.8035 15.0959 28.3651 15.0959C28.5838 15.0865 28.8021 15.1218 29.0065 15.1996C29.2108 15.2773 29.397 15.3958 29.5533 15.5478C29.7097 15.6998 29.8329 15.882 29.9155 16.0832C29.9981 16.2843 30.0381 16.5002 30.0332 16.7173C30.0016 17.131 29.8257 17.5208 29.5358 17.8195C28.7944 18.6471 27.8801 19.3042 26.8566 19.7452C25.8331 20.1862 24.7251 20.4004 23.6097 20.3729C22.5297 20.3896 21.4573 20.1907 20.4563 19.7881C19.4552 19.3855 18.5459 18.7873 17.7824 18.0291C17.0188 17.2709 16.4166 16.3682 16.0114 15.3745C15.6062 14.3808 15.4064 13.3165 15.4237 12.2447ZM8.80282 7.5336H1.94425C1.52535 7.53133 1.12426 7.36513 0.828048 7.07109C0.531838 6.77709 0.364428 6.37891 0.362163 5.9631C0.359854 5.75621 0.399198 5.55095 0.477888 5.35937C0.556575 5.16779 0.673029 4.99378 0.820404 4.84746C0.967775 4.70119 1.1431 4.5856 1.33609 4.50748C1.52908 4.42937 1.73584 4.39032 1.94425 4.39261H12.217C12.4254 4.39032 12.6322 4.42937 12.8252 4.50748C13.0182 4.5856 13.1935 4.70119 13.3409 4.84746C13.4882 4.99378 13.6047 5.16779 13.6834 5.35937C13.7621 5.55095 13.8014 5.75621 13.7991 5.9631C13.7831 6.38194 13.6056 6.77873 13.3034 7.07142L4.95321 16.965H12.217C12.4254 16.9627 12.6322 17.0018 12.8252 17.0799C13.0182 17.158 13.1935 17.2736 13.3409 17.4199C13.4882 17.5662 13.6047 17.7402 13.6834 17.9318C13.7621 18.1234 13.8014 18.3286 13.7991 18.5355C13.7969 18.9513 13.6294 19.3495 13.3332 19.6435C13.037 19.9375 12.6359 20.1037 12.217 20.106H1.58213C1.15872 20.1015 0.75438 19.9304 0.457799 19.6304C0.161219 19.3304 -0.00339545 18.9259 5.31109e-05 18.5055C0.0110961 18.0902 0.176996 17.6938 0.465626 17.3929L8.80282 7.5336ZM36.603 24.5335V18.5108C38.0262 19.7488 39.8587 20.4262 41.7528 20.4145C46.2218 20.4145 49.6048 16.8206 49.6048 12.2705C49.6048 7.72041 46.2218 4.12645 41.7528 4.12645C39.8523 4.10953 38.0146 4.79953 36.603 6.06002V5.84658C36.5445 5.43963 36.3396 5.06721 36.0262 4.79782C35.7126 4.52842 35.3115 4.3801 34.8965 4.3801C34.4814 4.3801 34.0803 4.52842 33.7668 4.79782C33.4533 5.06721 33.2485 5.43963 33.19 5.84658V24.5335C33.2485 24.9405 33.4533 25.3129 33.7668 25.5823C34.0803 25.8517 34.4814 26 34.8965 26C35.3115 26 35.7126 25.8517 36.0262 25.5823C36.3396 25.3129 36.5445 24.9405 36.603 24.5335ZM41.3822 7.25944C44.0498 7.25944 46.1614 9.4107 46.1614 12.2705C46.1614 15.1303 44.0498 17.2816 41.3822 17.2816C38.7147 17.2816 36.603 15.1303 36.603 12.2705V12.0528C36.6979 9.32105 38.7147 7.25944 41.3822 7.25944ZM64.9697 7.73669C64.0677 9.07265 63.5863 10.6433 63.5863 12.2501C63.5672 13.3222 63.7663 14.3871 64.1721 15.3814C64.5775 16.3756 65.1814 17.2788 65.9472 18.037C66.7131 18.7952 67.6258 19.3929 68.6302 19.7944C69.6346 20.1959 70.7102 20.3931 71.7931 20.374C73.4165 20.374 75.0028 19.8976 76.3526 19.0049C77.7023 18.1122 78.7541 16.8434 79.375 15.359C79.9965 13.8745 80.1589 12.2411 79.8423 10.6652C79.5258 9.08931 78.7438 7.64174 77.596 6.50559C76.4487 5.36943 74.9863 4.59571 73.3941 4.28225C71.8024 3.96878 70.1521 4.12966 68.6526 4.74454C67.1531 5.35942 65.8711 6.40067 64.9697 7.73669ZM71.7931 7.2514C74.516 7.2514 76.5633 9.49101 76.5633 12.2501C76.5633 14.9794 74.5199 17.2488 71.7931 17.2488C69.0663 17.2488 67.0233 15.0092 67.0233 12.2501C67.0233 9.49101 69.0706 7.2514 71.7931 7.2514Z" fill="url(#paint0_linear_1_5709)"/>
<defs>
<linearGradient id="paint0_linear_1_5709" x1="33.5201" y1="4.61983" x2="37.4334" y2="27.8343" gradientUnits="userSpaceOnUse">
<stop stop-color="#FF3269"/>
<stop offset="1" stop-color="#FF794D"/>
</linearGradient>
</defs>
</svg>
