<svg width="82" height="22" viewBox="0 0 82 22" fill="none" xmlns="http://www.w3.org/2000/svg">
<path d="M10.3105 5.16924C11.6971 5.16924 12.9352 5.51498 14.0247 6.20619C15.1241 6.88751 15.9857 7.85526 16.6097 9.10916C17.2139 10.3139 17.516 11.7311 17.516 13.3604C17.516 14.9402 17.2139 16.3523 16.6097 17.5966C16.0055 18.8406 15.1538 19.8134 14.0544 20.5145C12.9451 21.2255 11.6971 21.5809 10.3105 21.5809C9.30025 21.5809 8.34944 21.3735 7.45803 20.9589C6.56663 20.5439 5.804 19.9615 5.17012 19.2109V21.2043H0V0H5.17012V7.52449C5.804 6.77396 6.56663 6.19631 7.45803 5.79152C8.34944 5.37657 9.30025 5.16924 10.3105 5.16924ZM8.76542 17.3003C9.49835 17.3003 10.152 17.1325 10.7265 16.7966C11.3009 16.4608 11.7516 15.9919 12.0784 15.3896C12.4053 14.797 12.5687 14.1205 12.5687 13.3604C12.5687 12.6197 12.4053 11.9483 12.0784 11.3458C11.7516 10.7435 11.3009 10.2744 10.7265 9.93878C10.152 9.60292 9.49835 9.43513 8.76542 9.43513C8.07211 9.43513 7.45308 9.60292 6.90835 9.93878C6.3636 10.2647 5.93771 10.7238 5.63066 11.3161C5.32363 11.9186 5.17012 12.5999 5.17012 13.3604C5.17012 14.1205 5.32363 14.8021 5.63066 15.4043C5.93771 15.9967 6.3636 16.4608 6.90835 16.7966C7.45308 17.1325 8.07211 17.3003 8.76542 17.3003Z" fill="#1C1C1C"/>
<path d="M18.2236 21.2043V0H23.3937V21.2043H18.2236Z" fill="#1C1C1C"/>
<path d="M24.8604 21.2071V5.52344H30.0008V21.2071H24.8604Z" fill="#1C1C1C"/>
<path d="M41.1668 5.17188C42.2662 5.17188 43.2569 5.42864 44.1382 5.94218C45.0198 6.44582 45.713 7.15681 46.218 8.07512C46.7036 9.00333 46.9461 10.055 46.9461 11.2301V21.207H42.0138V12.3854C42.0138 11.8125 41.9 11.3041 41.6719 10.8597C41.4541 10.4055 41.1422 10.055 40.7359 9.80809C40.3399 9.56121 39.8745 9.43777 39.3396 9.43777C38.8345 9.43777 38.3688 9.56121 37.9431 9.80809C37.517 10.0451 37.1853 10.3711 36.9476 10.7857C36.7 11.1806 36.5762 11.6447 36.5762 12.178L36.5465 21.207H31.406V5.52751H36.5465V7.31979C37.0317 6.64836 37.6805 6.12493 38.4926 5.74953C39.3048 5.36452 40.1963 5.17188 41.1668 5.17188Z" fill="#1C1C1C"/>
<path d="M58.3065 12.3827L64.139 21.2043H58.3005L54.8895 15.656L53.3147 17.478V21.2043H48.1445V0H53.3147V11.7161L58.2852 5.51668L64.1197 5.52063L58.3065 12.3827Z" fill="#1C1C1C"/>
<path d="M24.8564 0.00390625H30.0139V4.01727H24.8564V0.00390625Z" fill="#1C1C1C"/>
<path d="M64.9224 21.2083V5.52344H70.0798V21.2083H64.9224Z" fill="#0C831F"/>
<path d="M80.9751 16.737L82 20.0399C81.5346 20.4845 80.9454 20.8447 80.232 21.1212C79.5289 21.3978 78.8406 21.5362 78.1672 21.5362C77.1964 21.5362 76.3298 21.3238 75.5672 20.8992C74.8046 20.4648 74.2103 19.8623 73.7842 19.092C73.3585 18.3417 73.1454 17.4776 73.1454 16.5V9.57971H71.0806V5.52284H73.1454V0.00390625H78.078V5.52284H81.3315V9.57971H78.078V15.552C78.078 16.0557 78.2117 16.4655 78.4791 16.7813C78.7465 17.0974 79.0881 17.2553 79.5043 17.2553C79.8012 17.2553 80.0785 17.211 80.336 17.122C80.5935 17.0333 80.8065 16.9048 80.9751 16.737Z" fill="#0C831F"/>
<path d="M64.9224 0.00390625H70.0798V4.01727H64.9224V0.00390625Z" fill="#0C831F"/>
</svg>
